<?xml version="1.0" encoding="UTF-8"?>
<svg version="1.1" xmlns="http://www.w3.org/2000/svg" width="547" height="547">
<path d="M0 0 C180.51 0 361.02 0 547 0 C547 180.51 547 361.02 547 547 C366.49 547 185.98 547 0 547 C0 366.49 0 185.98 0 0 Z " fill="#FFFFFF" transform="translate(0,0)"/>
<path d="M0 0 C21.78 0 43.56 0 66 0 C66 6.93 66 13.86 66 21 C73.26 21 80.52 21 88 21 C88 42.78 88 64.56 88 87 C102.52 87 117.04 87 132 87 C132 101.52 132 116.04 132 131 C139.26 131 146.52 131 154 131 C154 138.26 154 145.52 154 153 C146.74 153 139.48 153 132 153 C132 160.26 132 167.52 132 175 C139.26 175 146.52 175 154 175 C154 181.93 154 188.86 154 196 C146.74 196 139.48 196 132 196 C132 203.26 132 210.52 132 218 C139.26 218 146.52 218 154 218 C154 225.26 154 232.52 154 240 C160.93 240 167.86 240 175 240 C175 247.26 175 254.52 175 262 C182.26 262 189.52 262 197 262 C197 297.97 197 333.94 197 371 C204.26 371 211.52 371 219 371 C219 378.26 219 385.52 219 393 C204.48 393 189.96 393 175 393 C175 400.26 175 407.52 175 415 C182.26 415 189.52 415 197 415 C197 422.26 197 429.52 197 437 C182.81 437 168.62 437 154 437 C154 422.48 154 407.96 154 393 C146.74 393 139.48 393 132 393 C132 385.74 132 378.48 132 371 C124.74 371 117.48 371 110 371 C110 378.26 110 385.52 110 393 C102.74 393 95.48 393 88 393 C88 414.78 88 436.56 88 459 C22.99 459 -42.02 459 -109 459 C-109 437.22 -109 415.44 -109 393 C-101.74 393 -94.48 393 -87 393 C-87 385.74 -87 378.48 -87 371 C-94.26 371 -101.52 371 -109 371 C-109 306.32 -109 241.64 -109 175 C-116.26 175 -123.52 175 -131 175 C-131 167.74 -131 160.48 -131 153 C-138.26 153 -145.52 153 -153 153 C-153 145.74 -153 138.48 -153 131 C-167.19 131 -181.38 131 -196 131 C-196 116.48 -196 101.96 -196 87 C-167.29 87 -138.58 87 -109 87 C-109 72.48 -109 57.96 -109 43 C-101.74 43 -94.48 43 -87 43 C-87 50.26 -87 57.52 -87 65 C-79.74 65 -72.48 65 -65 65 C-65 57.74 -65 50.48 -65 43 C-57.74 43 -50.48 43 -43 43 C-43 57.52 -43 72.04 -43 87 C-35.74 87 -28.48 87 -21 87 C-21 72.48 -21 57.96 -21 43 C-14.07 43 -7.14 43 0 43 C0 50.26 0 57.52 0 65 C7.26 65 14.52 65 22 65 C22 50.48 22 35.96 22 21 C14.74 21 7.48 21 0 21 C0 14.07 0 7.14 0 0 Z " fill="#000000" transform="translate(284,88)"/>
<path d="M0 0 C21.78 0 43.56 0 66 0 C66 7.26 66 14.52 66 22 C58.74 22 51.48 22 44 22 C44 29.26 44 36.52 44 44 C51.26 44 58.52 44 66 44 C66 51.26 66 58.52 66 66 C94.71 66 123.42 66 153 66 C153 73.26 153 80.52 153 88 C160.26 88 167.52 88 175 88 C175 152.68 175 217.36 175 284 C182.26 284 189.52 284 197 284 C197 291.26 197 298.52 197 306 C189.74 306 182.48 306 175 306 C175 327.78 175 349.56 175 372 C117.25 372 59.5 372 0 372 C0 249.24 0 126.48 0 0 Z " fill="#FFFFFF" transform="translate(0,175)"/>
<path d="M0 0 C50.49 0 100.98 0 153 0 C153 50.49 153 100.98 153 153 C102.51 153 52.02 153 0 153 C0 102.51 0 52.02 0 0 Z " fill="#FFFFFF" transform="translate(0,394)"/>
<path d="M0 0 C50.49 0 100.98 0 153 0 C153 50.49 153 100.98 153 153 C102.51 153 52.02 153 0 153 C0 102.51 0 52.02 0 0 Z " fill="#FFFFFF" transform="translate(394,0)"/>
<path d="M0 0 C50.49 0 100.98 0 153 0 C153 50.49 153 100.98 153 153 C102.51 153 52.02 153 0 153 C0 102.51 0 52.02 0 0 Z " fill="#FFFFFF" transform="translate(0,0)"/>
<path d="M0 0 C36.3 0 72.6 0 110 0 C110 7.26 110 14.52 110 22 C95.48 22 80.96 22 66 22 C66 29.26 66 36.52 66 44 C51.48 44 36.96 44 22 44 C22 51.26 22 58.52 22 66 C29.26 66 36.52 66 44 66 C44 73.26 44 80.52 44 88 C51.26 88 58.52 88 66 88 C66 109.45 66 130.9 66 153 C58.74 153 51.48 153 44 153 C44 145.74 44 138.48 44 131 C36.74 131 29.48 131 22 131 C22 145.52 22 160.04 22 175 C-6.71 175 -35.42 175 -65 175 C-65 189.52 -65 204.04 -65 219 C-50.81 219 -36.62 219 -22 219 C-22 226.26 -22 233.52 -22 241 C-43.45 241 -64.9 241 -87 241 C-87 233.74 -87 226.48 -87 219 C-94.26 219 -101.52 219 -109 219 C-109 211.74 -109 204.48 -109 197 C-101.74 197 -94.48 197 -87 197 C-87 189.74 -87 182.48 -87 175 C-108.78 175 -130.56 175 -153 175 C-153 167.74 -153 160.48 -153 153 C-102.51 153 -52.02 153 0 153 C0 102.51 0 52.02 0 0 Z " fill="#FFFFFF" transform="translate(153,0)"/>
<path d="M0 0 C14.52 0 29.04 0 44 0 C44 57.75 44 115.5 44 175 C-13.75 175 -71.5 175 -131 175 C-131 153.22 -131 131.44 -131 109 C-123.74 109 -116.48 109 -109 109 C-109 101.74 -109 94.48 -109 87 C-101.74 87 -94.48 87 -87 87 C-87 94.26 -87 101.52 -87 109 C-79.74 109 -72.48 109 -65 109 C-65 123.52 -65 138.04 -65 153 C-50.81 153 -36.62 153 -22 153 C-22 145.74 -22 138.48 -22 131 C-29.26 131 -36.52 131 -44 131 C-44 123.74 -44 116.48 -44 109 C-29.48 109 -14.96 109 0 109 C0 94.81 0 80.62 0 66 C7.26 66 14.52 66 22 66 C22 58.74 22 51.48 22 44 C14.74 44 7.48 44 0 44 C0 29.48 0 14.96 0 0 Z " fill="#FFFFFF" transform="translate(503,372)"/>
<path d="M0 0 C21.78 0 43.56 0 66 0 C66 7.26 66 14.52 66 22 C58.74 22 51.48 22 44 22 C44 29.26 44 36.52 44 44 C51.26 44 58.52 44 66 44 C66 51.26 66 58.52 66 66 C58.74 66 51.48 66 44 66 C44 87.45 44 108.9 44 131 C58.52 131 73.04 131 88 131 C88 152.78 88 174.56 88 197 C80.74 197 73.48 197 66 197 C66 189.74 66 182.48 66 175 C51.48 175 36.96 175 22 175 C22 182.26 22 189.52 22 197 C14.74 197 7.48 197 0 197 C0 131.99 0 66.98 0 0 Z " fill="#FFFFFF" transform="translate(0,175)"/>
<path d="M0 0 C50.49 0 100.98 0 153 0 C153 50.49 153 100.98 153 153 C102.51 153 52.02 153 0 153 C0 102.51 0 52.02 0 0 Z M22 22 C22 57.97 22 93.94 22 131 C57.97 131 93.94 131 131 131 C131 95.03 131 59.06 131 22 C95.03 22 59.06 22 22 22 Z " fill="#000000" transform="translate(0,394)"/>
<path d="M0 0 C50.49 0 100.98 0 153 0 C153 50.49 153 100.98 153 153 C102.51 153 52.02 153 0 153 C0 102.51 0 52.02 0 0 Z M22 22 C22 57.97 22 93.94 22 131 C57.97 131 93.94 131 131 131 C131 95.03 131 59.06 131 22 C95.03 22 59.06 22 22 22 Z " fill="#000000" transform="translate(394,0)"/>
<path d="M0 0 C50.49 0 100.98 0 153 0 C153 50.49 153 100.98 153 153 C102.51 153 52.02 153 0 153 C0 102.51 0 52.02 0 0 Z M22 22 C22 57.97 22 93.94 22 131 C57.97 131 93.94 131 131 131 C131 95.03 131 59.06 131 22 C95.03 22 59.06 22 22 22 Z " fill="#000000" transform="translate(0,0)"/>
<path d="M0 0 C6.93 0 13.86 0 21 0 C21 7.26 21 14.52 21 22 C28.26 22 35.52 22 43 22 C43 43.78 43 65.56 43 88 C50.26 88 57.52 88 65 88 C65 102.52 65 117.04 65 132 C57.74 132 50.48 132 43 132 C43 138.93 43 145.86 43 153 C35.74 153 28.48 153 21 153 C21 160.26 21 167.52 21 175 C28.26 175 35.52 175 43 175 C43 182.26 43 189.52 43 197 C50.26 197 57.52 197 65 197 C65 204.26 65 211.52 65 219 C57.74 219 50.48 219 43 219 C43 226.26 43 233.52 43 241 C35.74 241 28.48 241 21 241 C21 233.74 21 226.48 21 219 C14.07 219 7.14 219 0 219 C0 211.74 0 204.48 0 197 C-14.52 197 -29.04 197 -44 197 C-44 189.74 -44 182.48 -44 175 C-36.74 175 -29.48 175 -22 175 C-22 167.74 -22 160.48 -22 153 C-14.74 153 -7.48 153 0 153 C0 146.07 0 139.14 0 132 C6.93 132 13.86 132 21 132 C21 102.96 21 73.92 21 44 C14.07 44 7.14 44 0 44 C0 29.48 0 14.96 0 0 Z " fill="#000000" transform="translate(263,131)"/>
<path d="M0 0 C28.71 0 57.42 0 87 0 C87 14.52 87 29.04 87 44 C65.22 44 43.44 44 21 44 C21 51.26 21 58.52 21 66 C14.07 66 7.14 66 0 66 C0 73.26 0 80.52 0 88 C-7.26 88 -14.52 88 -22 88 C-22 94.93 -22 101.86 -22 109 C-29.26 109 -36.52 109 -44 109 C-44 102.07 -44 95.14 -44 88 C-51.26 88 -58.52 88 -66 88 C-66 80.74 -66 73.48 -66 66 C-73.26 66 -80.52 66 -88 66 C-88 58.74 -88 51.48 -88 44 C-73.48 44 -58.96 44 -44 44 C-44 36.74 -44 29.48 -44 22 C-29.48 22 -14.96 22 0 22 C0 14.74 0 7.48 0 0 Z " fill="#000000" transform="translate(263,0)"/>
<path d="M0 0 C14.52 0 29.04 0 44 0 C44 7.26 44 14.52 44 22 C50.93 22 57.86 22 65 22 C65 29.26 65 36.52 65 44 C72.26 44 79.52 44 87 44 C87 36.74 87 29.48 87 22 C94.26 22 101.52 22 109 22 C109 43.78 109 65.56 109 88 C94.48 88 79.96 88 65 88 C65 95.26 65 102.52 65 110 C58.07 110 51.14 110 44 110 C44 102.74 44 95.48 44 88 C29.48 88 14.96 88 0 88 C0 80.74 0 73.48 0 66 C-7.26 66 -14.52 66 -22 66 C-22 58.74 -22 51.48 -22 44 C-14.74 44 -7.48 44 0 44 C0 29.48 0 14.96 0 0 Z " fill="#FFFFFF" transform="translate(219,328)"/>
<path d="M0 0 C6.93 0 13.86 0 21 0 C21 29.04 21 58.08 21 88 C14.07 88 7.14 88 0 88 C0 94.93 0 101.86 0 109 C-7.26 109 -14.52 109 -22 109 C-22 116.26 -22 123.52 -22 131 C-29.26 131 -36.52 131 -44 131 C-44 138.26 -44 145.52 -44 153 C-51.26 153 -58.52 153 -66 153 C-66 124.29 -66 95.58 -66 66 C-58.74 66 -51.48 66 -44 66 C-44 58.74 -44 51.48 -44 44 C-29.48 44 -14.96 44 0 44 C0 29.48 0 14.96 0 0 Z " fill="#FFFFFF" transform="translate(263,175)"/>
<path d="M0 0 C7.26 0 14.52 0 22 0 C22 43.23 22 86.46 22 131 C14.74 131 7.48 131 0 131 C0 138.26 0 145.52 0 153 C-7.26 153 -14.52 153 -22 153 C-22 145.74 -22 138.48 -22 131 C-29.26 131 -36.52 131 -44 131 C-44 123.74 -44 116.48 -44 109 C-29.48 109 -14.96 109 0 109 C0 101.74 0 94.48 0 87 C-7.26 87 -14.52 87 -22 87 C-22 72.81 -22 58.62 -22 44 C-29.26 44 -36.52 44 -44 44 C-44 36.74 -44 29.48 -44 22 C-29.48 22 -14.96 22 0 22 C0 14.74 0 7.48 0 0 Z " fill="#000000" transform="translate(525,197)"/>
<path d="M0 0 C7.26 0 14.52 0 22 0 C22 7.26 22 14.52 22 22 C29.26 22 36.52 22 44 22 C44 43.78 44 65.56 44 88 C22.22 88 0.44 88 -22 88 C-22 66.22 -22 44.44 -22 22 C-14.74 22 -7.48 22 0 22 C0 14.74 0 7.48 0 0 Z " fill="#FFFFFF" transform="translate(394,459)"/>
<path d="M0 0 C7.26 0 14.52 0 22 0 C22 29.04 22 58.08 22 88 C29.26 88 36.52 88 44 88 C44 95.26 44 102.52 44 110 C36.74 110 29.48 110 22 110 C22 117.26 22 124.52 22 132 C14.74 132 7.48 132 0 132 C0 117.48 0 102.96 0 88 C-7.26 88 -14.52 88 -22 88 C-22 66.22 -22 44.44 -22 22 C-14.74 22 -7.48 22 0 22 C0 14.74 0 7.48 0 0 Z " fill="#FFFFFF" transform="translate(328,131)"/>
<path d="M0 0 C21.78 0 43.56 0 66 0 C66 7.26 66 14.52 66 22 C58.74 22 51.48 22 44 22 C44 29.26 44 36.52 44 44 C51.26 44 58.52 44 66 44 C66 51.26 66 58.52 66 66 C58.74 66 51.48 66 44 66 C44 87.45 44 108.9 44 131 C36.74 131 29.48 131 22 131 C22 102.29 22 73.58 22 44 C14.74 44 7.48 44 0 44 C0 29.48 0 14.96 0 0 Z " fill="#000000" transform="translate(0,175)"/>
<path d="M0 0 C21.78 0 43.56 0 66 0 C66 21.78 66 43.56 66 66 C44.22 66 22.44 66 0 66 C0 44.22 0 22.44 0 0 Z " fill="#FFFFFF" transform="translate(372,372)"/>
<path d="M0 0 C21.45 0 42.9 0 65 0 C65 21.45 65 42.9 65 65 C43.55 65 22.1 65 0 65 C0 43.55 0 22.1 0 0 Z " fill="#000000" transform="translate(44,438)"/>
<path d="M0 0 C21.45 0 42.9 0 65 0 C65 21.45 65 42.9 65 65 C43.55 65 22.1 65 0 65 C0 43.55 0 22.1 0 0 Z " fill="#000000" transform="translate(438,44)"/>
<path d="M0 0 C21.45 0 42.9 0 65 0 C65 21.45 65 42.9 65 65 C43.55 65 22.1 65 0 65 C0 43.55 0 22.1 0 0 Z " fill="#000000" transform="translate(44,44)"/>
<path d="M0 0 C7.26 0 14.52 0 22 0 C22 6.93 22 13.86 22 21 C29.26 21 36.52 21 44 21 C44 28.26 44 35.52 44 43 C51.26 43 58.52 43 66 43 C66 50.26 66 57.52 66 65 C58.74 65 51.48 65 44 65 C44 72.26 44 79.52 44 87 C36.74 87 29.48 87 22 87 C22 79.74 22 72.48 22 65 C14.74 65 7.48 65 0 65 C0 57.74 0 50.48 0 43 C-7.26 43 -14.52 43 -22 43 C-22 35.74 -22 28.48 -22 21 C-14.74 21 -7.48 21 0 21 C0 14.07 0 7.14 0 0 Z " fill="#FFFFFF" transform="translate(306,263)"/>
<path d="M0 0 C14.52 0 29.04 0 44 0 C44 28.71 44 57.42 44 87 C29.48 87 14.96 87 0 87 C0 80.07 0 73.14 0 66 C7.26 66 14.52 66 22 66 C22 58.74 22 51.48 22 44 C14.74 44 7.48 44 0 44 C0 29.48 0 14.96 0 0 Z " fill="#000000" transform="translate(503,372)"/>
<path d="M0 0 C14.52 0 29.04 0 44 0 C44 21.78 44 43.56 44 66 C36.74 66 29.48 66 22 66 C22 58.74 22 51.48 22 44 C7.48 44 -7.04 44 -22 44 C-22 36.74 -22 29.48 -22 22 C-14.74 22 -7.48 22 0 22 C0 14.74 0 7.48 0 0 Z " fill="#000000" transform="translate(44,306)"/>
<path d="M0 0 C7.26 0 14.52 0 22 0 C22 21.45 22 42.9 22 65 C14.74 65 7.48 65 0 65 C0 72.26 0 79.52 0 87 C-7.26 87 -14.52 87 -22 87 C-22 79.74 -22 72.48 -22 65 C-29.26 65 -36.52 65 -44 65 C-44 57.74 -44 50.48 -44 43 C-29.48 43 -14.96 43 0 43 C0 28.81 0 14.62 0 0 Z " fill="#FFFFFF" transform="translate(328,416)"/>
<path d="M0 0 C7.26 0 14.52 0 22 0 C22 7.26 22 14.52 22 22 C29.26 22 36.52 22 44 22 C44 29.26 44 36.52 44 44 C29.48 44 14.96 44 0 44 C0 29.48 0 14.96 0 0 Z " fill="#000000" transform="translate(503,503)"/>
<path d="M0 0 C14.52 0 29.04 0 44 0 C44 7.26 44 14.52 44 22 C36.74 22 29.48 22 22 22 C22 29.26 22 36.52 22 44 C14.74 44 7.48 44 0 44 C0 29.48 0 14.96 0 0 Z " fill="#000000" transform="translate(109,306)"/>
<path d="M0 0 C21.45 0 42.9 0 65 0 C65 7.26 65 14.52 65 22 C43.55 22 22.1 22 0 22 C0 14.74 0 7.48 0 0 Z " fill="#000000" transform="translate(66,241)"/>
<path d="M0 0 C14.52 0 29.04 0 44 0 C44 7.26 44 14.52 44 22 C29.48 22 14.96 22 0 22 C0 14.74 0 7.48 0 0 Z " fill="#000000" transform="translate(219,416)"/>
<path d="M0 0 C7.26 0 14.52 0 22 0 C22 14.52 22 29.04 22 44 C14.74 44 7.48 44 0 44 C0 29.48 0 14.96 0 0 Z " fill="#000000" transform="translate(241,350)"/>
<path d="M0 0 C7.26 0 14.52 0 22 0 C22 14.52 22 29.04 22 44 C14.74 44 7.48 44 0 44 C0 29.48 0 14.96 0 0 Z " fill="#FFFFFF" transform="translate(197,175)"/>
<path d="M0 0 C14.52 0 29.04 0 44 0 C44 7.26 44 14.52 44 22 C29.48 22 14.96 22 0 22 C0 14.74 0 7.48 0 0 Z " fill="#FFFFFF" transform="translate(219,0)"/>
<path d="M0 0 C7.26 0 14.52 0 22 0 C22 14.19 22 28.38 22 43 C14.74 43 7.48 43 0 43 C0 28.81 0 14.62 0 0 Z " fill="#000000" transform="translate(459,263)"/>
<path d="M0 0 C14.52 0 29.04 0 44 0 C44 6.93 44 13.86 44 21 C29.48 21 14.96 21 0 21 C0 14.07 0 7.14 0 0 Z " fill="#FFFFFF" transform="translate(219,438)"/>
<path d="M0 0 C7.26 0 14.52 0 22 0 C22 7.26 22 14.52 22 22 C14.74 22 7.48 22 0 22 C0 14.74 0 7.48 0 0 Z " fill="#000000" transform="translate(416,525)"/>
<path d="M0 0 C7.26 0 14.52 0 22 0 C22 7.26 22 14.52 22 22 C14.74 22 7.48 22 0 22 C0 14.74 0 7.48 0 0 Z " fill="#FFFFFF" transform="translate(284,525)"/>
<path d="M0 0 C7.26 0 14.52 0 22 0 C22 7.26 22 14.52 22 22 C14.74 22 7.48 22 0 22 C0 14.74 0 7.48 0 0 Z " fill="#FFFFFF" transform="translate(219,525)"/>
<path d="M0 0 C7.26 0 14.52 0 22 0 C22 7.26 22 14.52 22 22 C14.74 22 7.48 22 0 22 C0 14.74 0 7.48 0 0 Z " fill="#FFFFFF" transform="translate(525,503)"/>
<path d="M0 0 C7.26 0 14.52 0 22 0 C22 7.26 22 14.52 22 22 C14.74 22 7.48 22 0 22 C0 14.74 0 7.48 0 0 Z " fill="#000000" transform="translate(394,503)"/>
<path d="M0 0 C7.26 0 14.52 0 22 0 C22 7.26 22 14.52 22 22 C14.74 22 7.48 22 0 22 C0 14.74 0 7.48 0 0 Z " fill="#FFFFFF" transform="translate(241,503)"/>
<path d="M0 0 C7.26 0 14.52 0 22 0 C22 7.26 22 14.52 22 22 C14.74 22 7.48 22 0 22 C0 14.74 0 7.48 0 0 Z " fill="#000000" transform="translate(525,481)"/>
<path d="M0 0 C7.26 0 14.52 0 22 0 C22 7.26 22 14.52 22 22 C14.74 22 7.48 22 0 22 C0 14.74 0 7.48 0 0 Z " fill="#FFFFFF" transform="translate(197,481)"/>
<path d="M0 0 C7.26 0 14.52 0 22 0 C22 7.26 22 14.52 22 22 C14.74 22 7.48 22 0 22 C0 14.74 0 7.48 0 0 Z " fill="#FFFFFF" transform="translate(197,416)"/>
<path d="M0 0 C7.26 0 14.52 0 22 0 C22 7.26 22 14.52 22 22 C14.74 22 7.48 22 0 22 C0 14.74 0 7.48 0 0 Z " fill="#000000" transform="translate(394,394)"/>
<path d="M0 0 C7.26 0 14.52 0 22 0 C22 7.26 22 14.52 22 22 C14.74 22 7.48 22 0 22 C0 14.74 0 7.48 0 0 Z " fill="#000000" transform="translate(131,350)"/>
<path d="M0 0 C7.26 0 14.52 0 22 0 C22 7.26 22 14.52 22 22 C14.74 22 7.48 22 0 22 C0 14.74 0 7.48 0 0 Z " fill="#000000" transform="translate(0,350)"/>
<path d="M0 0 C7.26 0 14.52 0 22 0 C22 7.26 22 14.52 22 22 C14.74 22 7.48 22 0 22 C0 14.74 0 7.48 0 0 Z " fill="#FFFFFF" transform="translate(416,328)"/>
<path d="M0 0 C7.26 0 14.52 0 22 0 C22 7.26 22 14.52 22 22 C14.74 22 7.48 22 0 22 C0 14.74 0 7.48 0 0 Z " fill="#FFFFFF" transform="translate(372,328)"/>
<path d="M0 0 C7.26 0 14.52 0 22 0 C22 7.26 22 14.52 22 22 C14.74 22 7.48 22 0 22 C0 14.74 0 7.48 0 0 Z " fill="#FFFFFF" transform="translate(0,328)"/>
<path d="M0 0 C7.26 0 14.52 0 22 0 C22 7.26 22 14.52 22 22 C14.74 22 7.48 22 0 22 C0 14.74 0 7.48 0 0 Z " fill="#FFFFFF" transform="translate(22,306)"/>
<path d="M0 0 C7.26 0 14.52 0 22 0 C22 7.26 22 14.52 22 22 C14.74 22 7.48 22 0 22 C0 14.74 0 7.48 0 0 Z " fill="#000000" transform="translate(0,306)"/>
<path d="M0 0 C7.26 0 14.52 0 22 0 C22 7.26 22 14.52 22 22 C14.74 22 7.48 22 0 22 C0 14.74 0 7.48 0 0 Z " fill="#FFFFFF" transform="translate(372,284)"/>
<path d="M0 0 C7.26 0 14.52 0 22 0 C22 7.26 22 14.52 22 22 C14.74 22 7.48 22 0 22 C0 14.74 0 7.48 0 0 Z " fill="#FFFFFF" transform="translate(525,241)"/>
<path d="M0 0 C7.26 0 14.52 0 22 0 C22 7.26 22 14.52 22 22 C14.74 22 7.48 22 0 22 C0 14.74 0 7.48 0 0 Z " fill="#FFFFFF" transform="translate(372,241)"/>
<path d="M0 0 C7.26 0 14.52 0 22 0 C22 7.26 22 14.52 22 22 C14.74 22 7.48 22 0 22 C0 14.74 0 7.48 0 0 Z " fill="#000000" transform="translate(241,241)"/>
<path d="M0 0 C7.26 0 14.52 0 22 0 C22 7.26 22 14.52 22 22 C14.74 22 7.48 22 0 22 C0 14.74 0 7.48 0 0 Z " fill="#FFFFFF" transform="translate(131,241)"/>
<path d="M0 0 C7.26 0 14.52 0 22 0 C22 7.26 22 14.52 22 22 C14.74 22 7.48 22 0 22 C0 14.74 0 7.48 0 0 Z " fill="#FFFFFF" transform="translate(175,219)"/>
<path d="M0 0 C7.26 0 14.52 0 22 0 C22 7.26 22 14.52 22 22 C14.74 22 7.48 22 0 22 C0 14.74 0 7.48 0 0 Z " fill="#FFFFFF" transform="translate(372,197)"/>
<path d="M0 0 C7.26 0 14.52 0 22 0 C22 7.26 22 14.52 22 22 C14.74 22 7.48 22 0 22 C0 14.74 0 7.48 0 0 Z " fill="#FFFFFF" transform="translate(131,197)"/>
<path d="M0 0 C7.26 0 14.52 0 22 0 C22 7.26 22 14.52 22 22 C14.74 22 7.48 22 0 22 C0 14.74 0 7.48 0 0 Z " fill="#000000" transform="translate(481,175)"/>
<path d="M0 0 C7.26 0 14.52 0 22 0 C22 7.26 22 14.52 22 22 C14.74 22 7.48 22 0 22 C0 14.74 0 7.48 0 0 Z " fill="#FFFFFF" transform="translate(197,131)"/>
<path d="M0 0 C7.26 0 14.52 0 22 0 C22 7.26 22 14.52 22 22 C14.74 22 7.48 22 0 22 C0 14.74 0 7.48 0 0 Z " fill="#000000" transform="translate(197,109)"/>
<path d="M0 0 C7.26 0 14.52 0 22 0 C22 7.26 22 14.52 22 22 C14.74 22 7.48 22 0 22 C0 14.74 0 7.48 0 0 Z " fill="#FFFFFF" transform="translate(241,44)"/>
<path d="M0 0 C7.26 0 14.52 0 22 0 C22 7.26 22 14.52 22 22 C14.74 22 7.48 22 0 22 C0 14.74 0 7.48 0 0 Z " fill="#FFFFFF" transform="translate(284,0)"/>
<path d="M0 0 C7.26 0 14.52 0 22 0 C22 7.26 22 14.52 22 22 C14.74 22 7.48 22 0 22 C0 14.74 0 7.48 0 0 Z " fill="#000000" transform="translate(197,0)"/>
<path d="M0 0 C6.93 0 13.86 0 21 0 C21 7.26 21 14.52 21 22 C14.07 22 7.14 22 0 22 C0 14.74 0 7.48 0 0 Z " fill="#000000" transform="translate(88,284)"/>
<path d="M0 0 C7.26 0 14.52 0 22 0 C22 6.93 22 13.86 22 21 C14.74 21 7.48 21 0 21 C0 14.07 0 7.14 0 0 Z " fill="#000000" transform="translate(131,263)"/>
</svg>
